HIERARCHY
ROOT Hips
{
	OFFSET 0.000000 88.474243 0.000000
	CHANNELS 6 Xposition Yposition Zposition Zrotation Yrotation Xrotation 
	JOINT Hips_Spine
	{
		OFFSET 0.000000 0.000000 0.000000
		CHANNELS 3 Zrotation Yrotation Xrotation
		JOINT Spine
		{
			OFFSET 0.005100 8.711998 -0.691000
			CHANNELS 3 Zrotation Yrotation Xrotation
			JOINT Spine1
			{
				OFFSET -0.009200 8.660301 -1.275000
				CHANNELS 3 Zrotation Yrotation Xrotation
				JOINT Spine2
				{
					OFFSET 0.006300 9.852501 -1.857000
					CHANNELS 3 Zrotation Yrotation Xrotation
					JOINT Spine2_Neck
					{
						OFFSET 0.000000 0.000000 0.000000
						CHANNELS 3 Zrotation Yrotation Xrotation
						JOINT Neck
						{
							OFFSET 0.016300 11.420799 -0.263300
							CHANNELS 3 Zrotation Yrotation Xrotation
							End Site #name: Head
							{
								OFFSET -0.019200 9.262405 2.362500
							}
						}
					}
					JOINT Spine2_LeftShoulder
					{
						OFFSET 0.000000 0.000000 0.000000
						CHANNELS 3 Zrotation Yrotation Xrotation
						JOINT LeftShoulder
						{
							OFFSET 5.616900 6.732201 -0.345700
							CHANNELS 3 Zrotation Yrotation Xrotation
							JOINT LeftArm
							{
								OFFSET 10.664888 -0.183372 -2.440700
								CHANNELS 3 Zrotation Yrotation Xrotation
								JOINT LeftForeArm
								{
									OFFSET 27.459126 0.000000 0.000000
									CHANNELS 3 Zrotation Yrotation Xrotation
									End Site #name: LeftHand
									{
										OFFSET 21.306858 0.000000 0.000000
									}
								}
							}
						}
					}
					JOINT Spine2_RightShoulder
					{
						OFFSET 0.000000 0.000000 0.000000
						CHANNELS 3 Zrotation Yrotation Xrotation
						JOINT RightShoulder
						{
							OFFSET -5.580300 6.737503 -0.344400
							CHANNELS 3 Zrotation Yrotation Xrotation
							JOINT RightArm
							{
								OFFSET -10.679335 -0.188484 -2.383900
								CHANNELS 3 Zrotation Yrotation Xrotation
								JOINT RightForeArm
								{
									OFFSET -27.503529 0.000000 0.000000
									CHANNELS 3 Zrotation Yrotation Xrotation
									End Site #name: RightHand
									{
										OFFSET -21.306808 0.000000 0.000000
									}
								}
							}
						}
					}
				}
			}
		}
	}
	JOINT Hips_LeftUpLeg
	{
		OFFSET 0.000000 0.000000 0.000000
		CHANNELS 3 Zrotation Yrotation Xrotation
		JOINT LeftUpLeg
		{
			OFFSET 6.857700 -6.739601 0.312100
			CHANNELS 3 Zrotation Yrotation Xrotation
			JOINT LeftLeg
			{
				OFFSET -0.367590 -34.731552 -4.572400
				CHANNELS 3 Zrotation Yrotation Xrotation
				End Site #name: LeftFoot
				{
					OFFSET 0.367590 -34.656704 -6.067400
				}
			}
		}
	}
	JOINT Hips_RightUpLeg
	{
		OFFSET 0.000000 0.000000 0.000000
		CHANNELS 3 Zrotation Yrotation Xrotation
		JOINT RightUpLeg
		{
			OFFSET -6.876100 -6.733299 0.301000
			CHANNELS 3 Zrotation Yrotation Xrotation
			JOINT RightLeg
			{
				OFFSET 0.347353 -34.795158 -4.515900
				CHANNELS 3 Zrotation Yrotation Xrotation
				End Site #name: RightFoot
				{
					OFFSET -0.347353 -34.589367 -6.070300
				}
			}
		}
	}
}
MOTION
Frames: 13
Frame Time: 0.041667
0.057681 -0.054259 -0.071548 -7.095104 41.764360 -5.264219 -0.000000 -0.000000 0.000000 -2.677544 1.255467 -0.182748 2.652223 0.364243 4.396106 0.000000 0.000000 0.000000 2.846981 -0.406708 1.692397 -1.455670 -4.178035 -0.414339 1.458777 0.804318 3.357501 -7.969845 -5.188920 1.269191 -73.629956 -3.397238 -0.777073 0.286883 -23.715045 2.635064 1.917909 0.012013 3.685512 16.741959 12.017876 3.649921 53.338883 8.334586 -11.078428 -12.853986 77.432542 -8.335914 0.000000 -0.000000 0.000000 -0.180993 17.998034 -18.877192 -5.945788 -18.741952 6.539594 -0.000000 -0.000000 -0.000000 -2.246836 -14.065002 -9.433482 -7.334846 -8.135719 17.449860 
-0.133864 -0.207193 -0.118002 -6.469214 36.514049 -2.837038 -0.000000 -0.000000 0.000000 -3.224679 -0.533149 1.227402 3.794203 0.376189 4.126065 0.000000 0.000000 0.000000 3.365696 -0.245160 3.835643 -0.064273 -7.588642 -0.240632 2.153552 0.748747 3.871641 -7.704443 -6.367460 1.509889 -76.601909 -12.027980 -2.424520 -1.160568 -18.810644 2.266310 3.966095 -0.192689 4.609007 20.884199 13.650666 3.761939 55.498991 6.516843 -10.236296 -5.802354 68.269562 -1.205627 0.000000 -0.000000 -0.000000 0.903084 19.592008 -18.814022 -4.985258 -15.529283 5.106055 -0.000000 -0.000000 -0.000000 -2.757270 -10.109396 -8.403149 -3.640577 -5.438996 16.491015 
-0.157366 -0.260901 -0.182220 -7.482764 38.136893 -3.507614 -0.000000 -0.000000 0.000000 -2.023360 -3.521623 0.236570 4.864670 0.216529 4.906024 0.000000 0.000000 0.000000 4.465019 -0.520848 4.631418 0.083186 -11.621255 0.404757 2.638157 0.776113 4.059788 -6.502176 -6.212719 0.635438 -76.664049 -12.488193 -4.413728 -0.777578 -13.194839 2.238786 4.970966 -0.327512 4.859688 21.877241 15.520519 4.376779 54.933550 9.059826 -8.140868 -6.977602 68.559455 -1.652838 0.000000 0.000000 -0.000000 2.414944 21.610207 -17.073548 -4.701640 -15.414899 5.000303 -0.000000 -0.000000 -0.000000 -2.780211 -12.431952 -6.663159 -0.932434 -3.735915 16.314435 
-0.148679 -0.320377 -0.259028 -8.627719 39.957867 -5.392482 -0.000000 -0.000000 0.000000 -0.975145 -5.065638 0.872539 5.332877 -0.130368 5.569894 0.000000 0.000000 0.000000 5.032588 -0.848482 5.329777 -0.160634 -13.075959 1.148687 2.970335 0.589446 4.014984 -5.231418 -3.867849 -1.657481 -78.371210 -13.409516 -3.762524 -0.674813 -9.594273 2.093579 5.501150 -0.764970 5.199844 20.991371 15.541838 4.434651 55.479707 10.772077 -7.749189 -10.188892 76.852060 -4.765256 0.000000 0.000000 -0.000000 3.092417 23.171535 -15.712154 -3.994936 -15.951344 4.619503 -0.000000 -0.000000 -0.000000 -2.713490 -16.534078 -5.528335 0.036892 -2.149697 16.020279 
-0.135600 -0.379546 -0.349335 -9.233205 40.871907 -6.546700 -0.000000 -0.000000 0.000000 -0.011491 -5.840268 1.086118 5.556995 -0.391050 5.919450 0.000000 0.000000 0.000000 5.299177 -1.107785 5.997331 0.340118 -14.077580 2.037224 3.058567 0.454918 4.256480 -4.641405 -2.776993 -2.823437 -79.740364 -14.262660 -2.898414 -0.581824 -7.157895 2.110207 5.672784 -1.171511 5.611515 20.126474 15.061284 4.171024 56.555777 11.655884 -7.146250 -20.125307 84.181833 -14.852254 0.000000 0.000000 -0.000000 3.427693 23.809960 -14.900929 -3.764753 -16.579642 4.512362 -0.000000 -0.000000 -0.000000 -2.558133 -19.272123 -4.712890 -0.603387 -1.571701 15.829623 
-0.108570 -0.432270 -0.440840 -9.415941 41.116232 -6.807686 -0.000000 -0.000000 0.000000 0.986035 -5.869070 1.114113 5.520308 -0.579074 6.114733 0.000000 0.000000 0.000000 5.304809 -1.264288 6.446918 0.622871 -14.884431 2.368194 2.998976 0.420128 4.745940 -4.497678 -2.412229 -3.271334 -80.513306 -14.575371 -1.923166 -0.440240 -5.871967 2.183464 5.616757 -1.453012 6.050699 19.963550 14.931081 3.859736 57.451458 11.803000 -6.268076 -80.542581 88.100106 -75.279471 0.000000 0.000000 -0.000000 3.551198 23.845399 -14.497954 -3.720658 -17.251497 4.228877 -0.000000 -0.000000 -0.000000 -2.347820 -20.644369 -4.419814 -1.850560 -1.957496 15.824677 
-0.070958 -0.475525 -0.531275 -9.183746 40.708883 -6.233551 -0.000000 -0.000000 0.000000 1.524510 -5.698388 1.468803 5.360804 -0.678334 6.373861 0.000000 0.000000 0.000000 5.182325 -1.324554 6.677812 0.718585 -15.617134 2.015519 2.871365 0.393762 5.165322 -4.693026 -2.124946 -3.428052 -80.661180 -14.539798 -1.258643 -0.347640 -5.470167 2.597431 5.412357 -1.615290 6.403578 20.136430 15.336060 3.732299 57.840438 11.019668 -5.280701 -150.930866 86.282859 -145.707322 0.000000 0.000000 -0.000000 3.494882 23.423134 -14.418047 -3.774296 -18.115823 3.721619 -0.000000 -0.000000 -0.000000 -2.298963 -21.862381 -4.421131 -3.079028 -2.968813 15.834931 
-0.028722 -0.515252 -0.619032 -8.838773 40.242072 -5.393885 -0.000000 -0.000000 0.000000 1.798844 -5.522888 1.723950 5.179706 -0.728556 6.640483 0.000000 0.000000 0.000000 5.027253 -1.363350 6.829728 0.746168 -16.356209 1.430805 2.704699 0.346476 5.508766 -4.880759 -2.037800 -3.465312 -80.530163 -14.475552 -0.765381 -0.173163 -5.279529 3.051787 5.131578 -1.698116 6.670986 20.370713 15.880087 3.755117 58.014500 9.979273 -4.622551 -163.271477 83.717701 -158.065880 0.000000 0.000000 -0.000000 3.352400 22.759496 -14.471229 -3.782164 -18.913775 3.144354 -0.000000 -0.000000 -0.000000 -2.304822 -22.949149 -4.624342 -3.953129 -3.881678 15.945593 
0.018782 -0.554991 -0.698534 -8.600411 40.026583 -4.706704 -0.000000 -0.000000 0.000000 1.937908 -5.346967 1.914198 5.020397 -0.773140 6.884823 0.000000 0.000000 0.000000 4.862417 -1.394132 6.939993 0.863013 -16.831574 1.145081 2.545775 0.305820 5.765999 -4.844264 -2.112976 -3.516327 -80.292425 -14.494995 -0.556428 0.092252 -5.411354 3.398469 4.860985 -1.785763 6.856282 20.521438 16.385257 3.820539 58.061609 8.895341 -3.954347 -167.375998 81.606820 -162.135642 0.000000 0.000000 -0.000000 3.247886 22.173365 -14.535145 -3.745433 -19.509541 2.707434 -0.000000 -0.000000 -0.000000 -2.333976 -24.003895 -4.868725 -4.317737 -4.418412 16.134599 
0.068974 -0.594155 -0.771911 -8.497330 40.072031 -4.311424 0.000000 -0.000000 0.000000 1.949407 -5.308830 2.068617 4.899255 -0.826358 7.084982 0.000000 0.000000 0.000000 4.733191 -1.444342 7.050570 1.039362 -17.172498 0.981108 2.426085 0.266700 5.995265 -4.499905 -2.404211 -3.541733 -80.317922 -14.593473 -0.651636 0.280796 -5.569554 3.561278 4.660085 -1.890273 7.000542 20.497558 16.807660 3.863363 58.143304 7.812793 -3.244038 -170.014539 79.425683 -164.733329 0.000000 0.000000 -0.000000 3.209020 21.818934 -14.522979 -3.683712 -19.818501 2.404774 -0.000000 -0.000000 -0.000000 -2.395727 -24.806554 -5.043737 -4.465230 -4.845802 16.310263 
0.121021 -0.631550 -0.841984 -8.512463 40.319673 -4.187446 0.000000 -0.000000 0.000000 1.888619 -5.359493 2.219569 4.806330 -0.896866 7.276177 0.000000 0.000000 0.000000 4.641977 -1.508914 7.162767 1.310188 -17.414372 0.846889 2.345538 0.215667 6.219347 -3.994632 -2.717253 -3.546971 -80.543819 -14.721409 -0.850628 0.342264 -5.560746 3.466354 4.510021 -2.016673 7.128657 20.230469 17.137863 3.844729 58.290172 7.029626 -2.569852 -172.090145 77.024125 -166.786230 0.000000 0.000000 -0.000000 3.220050 21.634774 -14.454949 -3.620134 -19.891581 2.265751 -0.000000 -0.000000 -0.000000 -2.475822 -25.239072 -5.145715 -4.455602 -5.246625 16.443978 
0.174411 -0.666441 -0.911022 -8.584382 40.667612 -4.207218 0.000000 -0.000000 0.000000 1.794672 -5.481115 2.425142 4.727603 -0.978224 7.499584 0.000000 0.000000 0.000000 4.576853 -1.582645 7.310495 1.591144 -17.509927 0.724434 2.284233 0.156738 6.463328 -3.478246 -2.928163 -3.545381 -80.749507 -14.912656 -0.967933 0.283566 -5.480123 3.157946 4.395030 -2.159383 7.292124 19.793446 17.349200 3.762151 58.526482 6.617347 -2.124938 -173.669104 74.523993 -168.332835 0.000000 0.000000 -0.000000 3.251440 21.578745 -14.368954 -3.560220 -19.856569 2.254926 0.000000 -0.000000 -0.000000 -2.545633 -25.238252 -5.200898 -4.315514 -5.611237 16.505982 
0.228837 -0.699318 -0.980711 -8.691072 41.025505 -4.305240 0.000000 -0.000000 0.000000 1.644237 -5.669425 2.721731 4.644180 -1.061816 7.761260 0.000000 0.000000 0.000000 4.537587 -1.662317 7.491979 1.869085 -17.494394 0.622627 2.238584 0.095859 6.740645 -2.972696 -3.128911 -3.538323 -80.937585 -15.135270 -1.045080 0.232833 -5.470343 2.783475 4.315844 -2.300343 7.501099 19.241956 17.414295 3.620287 58.861478 6.484258 -1.935410 -174.856390 72.214190 -169.478440 0.000000 0.000000 -0.000000 3.297855 21.608996 -14.271067 -3.506745 -19.773270 2.301686 0.000000 -0.000000 -0.000000 -2.599004 -24.947723 -5.211648 -4.078260 -5.899203 16.486644 
